<?xml version="1.0" encoding="utf-8"?>
<!-- Generator: Adobe Illustrator 18.1.1, SVG Export Plug-In . SVG Version: 6.00 Build 0)  -->
<svg version="1.1" id="Layer_1" xmlns="http://www.w3.org/2000/svg" xmlns:xlink="http://www.w3.org/1999/xlink" x="0px" y="0px"
	 viewBox="0 0 1024 768" enable-background="new 0 0 1024 768" xml:space="preserve">
<g id="envelope_2_">
	<path fill="#1C1666" d="M501.1,669.5L206.2,374.6h590.5L501.1,669.5z M501.1,718.7L378.3,595.9L206.2,768h590.5L624.6,595.9
		L501.1,718.7z M648.9,570.9l147.8,147.8V423.1L648.9,570.9z M206.2,423.1v294.8l147.8-147L206.2,423.1z"/>
</g>
<g id="wifi_4_">
	<path fill="#F08921" d="M656.7,293.3l-38.3,38.3C591,304.2,552.7,287,511.2,287s-79,17.2-106.4,43.8l-38.3-38.3
		c37.5-36.8,88.4-60.2,145.5-60.2C567.5,233.1,619.1,255.7,656.7,293.3z M511.2,342.5c-26.6,0-50.1,10.9-68,28.2l68.8,68.8l68-68
		C562.1,353.5,537.8,342.5,511.2,342.5z M205.4,133l39.9,39.9c68-68,161.9-109.5,265.1-109.5c104,0,197.9,42.2,265.9,110.3
		l39.9-39.9c-77.4-79-186.1-127.5-305-127.5C391.6,6.3,283.6,54.7,205.4,133z M511.2,118.1c-88.4,0-168.1,36-226.8,93.8l42.2,42.2
		c46.9-46.9,112.6-75.9,183.8-75.9c72,0,137.6,29.7,184.6,76.6l42.2-42.2C680.1,154.1,599.6,118.1,511.2,118.1z"/>
</g>
</svg>
