<?xml version="1.0" encoding="utf-8"?>
<!-- Generator: Adobe Illustrator 18.1.1, SVG Export Plug-In . SVG Version: 6.00 Build 0)  -->
<svg version="1.1" id="Layer_1" xmlns="http://www.w3.org/2000/svg" xmlns:xlink="http://www.w3.org/1999/xlink" x="0px" y="0px"
	 viewBox="0 0 656 410" enable-background="new 0 0 656 410" xml:space="preserve">
<g>
	<path fill-rule="evenodd" clip-rule="evenodd" fill="#FFFFFF" d="M157.8,148.7h88.5c79.7,0,130.6,49,130.6,125.6
		c0,84.8-56.4,126-146.2,126h-72.9V148.7L157.8,148.7z M240.7,206.4c-3.2,0-7.3,0.5-12.8,0.5v135.7c44.9,0,79.7-17.9,79.7-69.7
		C307.7,228.4,279.2,206.4,240.7,206.4L240.7,206.4z"/>
	<path fill-rule="evenodd" clip-rule="evenodd" fill="#FFFFFF" d="M650.9,222v-66.5c-17.9-7.3-33.9-11.5-56.4-11.5
		c-73.8,0-132.9,55.9-132.9,129.7c0,73.8,58.2,127.9,131.5,127.9c26.1,0,44-5.5,57.7-16v-66.5c-20.6,12.8-34.8,18.3-54.1,18.3
		c-37.1,0-66-27-66-66.9c0-39,29.3-67.4,66-67.4C617,203.2,631.7,210.1,650.9,222L650.9,222z"/>
	<path fill-rule="evenodd" clip-rule="evenodd" fill="#FFFFFF" d="M3.8,98.3v11.9h49V98.3C38.7,97.8,36.4,96,36.4,86.4v-60
		l29.3,83.9h12.4l31.6-83.9V85c0,12.4,0,12.4-17.4,13.3v11.9h56.8V98.3c-16.5,0-17-1.8-17-10.5V29.1c0-9.6,1.4-12.8,17-12.8V3.9
		h-48.6L75.8,71.2L52.9,3.9h-49v12.4c13.7,0,16,0,16,11.9v56.4C19.9,95.5,19.9,98.3,3.8,98.3L3.8,98.3z"/>
	<path fill-rule="evenodd" clip-rule="evenodd" fill="#FFFFFF" d="M241.6,98.3v11.9H287V98.3c-11-0.5-11-1.8-11-17V68.5
		c0-12.4,5.5-22.5,17-22.5c9.2,0,11.9,6,11.9,14.2v27c0,9.2-0.5,11-11.5,11v11.9h40.8V98.3c-9.6,0-10.5-0.9-10.5-10.1V69.4
		c0-12.8,6-23.8,17.9-23.8c9.2,0,11,5.5,11,16.5v27.5c0,7.8,0,8.7-11,8.7v11.9h44.9V98.3c-13.7,0-14.7,0.5-14.7-7.3V60.2
		c0-17.4-4.1-27.5-22-27.5c-10.5,0-17.4,4.1-26.1,13.3c-4.6-8.2-11-13.7-22-13.7c-11.5,0-19.2,6-25.7,14.7V34.6h-34.4v11
		c13.7,0,15.1,0.5,15.1,11.5v25.2C256.8,98.3,256.8,98.3,241.6,98.3L241.6,98.3z"/>
	<polygon fill-rule="evenodd" clip-rule="evenodd" fill="#FFFFFF" points="6,148.7 6,400.4 75.2,400.4 75.7,304.1 143.1,304.1 
		143.1,245.9 76.2,245.9 75.7,206.9 148.1,206.9 148.1,148.7 6,148.7 	"/>
	<path fill-rule="evenodd" clip-rule="evenodd" fill="#FFFFFF" d="M391.9,3.9H424v39c8.7-7.3,14.2-10.1,22.9-10.1
		c18.3,0,30.7,16.5,30.7,39.4c0,24.7-12.4,40.8-33.5,40.8c-10.1,0-16.5-3.2-23.4-10.5l-6.4,8.7h-9.6V28.7c0-12.4-0.9-13.7-12.8-13.7
		V3.9L391.9,3.9z M456.1,72.2c0-17.4-6.4-26.1-15.6-26.1c-11.9,0-17,9.6-17,27.5c0,15.6,6,26.1,16.5,26.1
		C448.8,99.7,456.1,91.4,456.1,72.2L456.1,72.2z"/>
	<path fill-rule="evenodd" clip-rule="evenodd" fill="#FFFFFF" d="M575.3,98.3v11.9h49.5V98.3c-13.7,0-15.1,0.5-15.1-10.5V71.2
		c0-15.1,5-28.9,18.8-28.9c0.9,0,1.8,0,4.6,0.9c-4.6,2.3-7.8,5.5-7.8,10.5c0,6,4.6,10.1,10.5,10.1c7.3,0,12.4-5.5,12.4-13.7
		c0-10.1-7.3-17.4-17.4-17.4c-8.2,0-14.2,4.1-21.5,12.4V34.6h-33.9v11c11.9,0,15.1,0,15.1,10.1v31.2
		C590.4,97.4,590.4,98.3,575.3,98.3L575.3,98.3z"/>
	<path fill-rule="evenodd" clip-rule="evenodd" fill="#FFFFFF" d="M512.9,74.5c0,14.7,6.9,24.7,19.2,24.7c11,0,16-6.4,17.9-16.5
		h13.7c-2.3,19.2-15.1,29.8-33.5,29.8c-22,0-38.5-13.3-38.5-39c0-23.4,14.7-40.8,36.7-40.8c21.5,0,35.3,16.5,35.3,41.7H512.9
		L512.9,74.5z M528.5,44.6c-9.2,0-14.7,6.4-14.7,17.9h28.9C542.7,50.6,538.1,44.6,528.5,44.6L528.5,44.6z"/>
	<path fill-rule="evenodd" clip-rule="evenodd" fill="#FFFFFF" d="M179.3,74.5c0,14.7,7.3,24.7,19.7,24.7c11,0,16-6.4,17.9-16.5
		h13.3c-2.3,19.2-14.7,29.8-33,29.8c-22,0-39-13.3-39-39c0-23.4,15.1-40.8,37.1-40.8c21.5,0,34.8,16.5,34.8,41.7H179.3L179.3,74.5z
		 M195.3,44.6c-9.2,0-14.7,6.4-14.7,17.9h28.4C209.1,50.1,204.5,44.6,195.3,44.6L195.3,44.6z"/>
	<polygon fill-rule="evenodd" clip-rule="evenodd" fill="#FFFFFF" points="384.2,400.4 453.4,400.4 453.4,148.7 384.2,148.7 
		384.2,400.4 	"/>
</g>
</svg>
