<?xml version="1.0" encoding="utf-8"?>
<!-- Generator: Adobe Illustrator 18.1.1, SVG Export Plug-In . SVG Version: 6.00 Build 0)  -->
<svg version="1.1" id="Layer_1" xmlns="http://www.w3.org/2000/svg" xmlns:xlink="http://www.w3.org/1999/xlink" x="0px" y="0px"
	 viewBox="0 0 1024 768" enable-background="new 0 0 1024 768" xml:space="preserve">
<path fill="#F08921" d="M162.4,236.5c0-38.4,10.1-76.8,26.3-111.2c10.1-18.2,20.2-36.4,36.4-52.5c20.2-20.2,42.4-38.4,64.7-56.6
	c24.1-18.2,46.4-14.2,68.6,6C382.7,44.5,396.8,70.7,413,97c10.1,16.2,18.2,30.3,24.3,46.5c16.2,38.4,10.1,70.7-24.3,99
	c-16.2,12.1-30.3,24.3-44.5,36.4c-14.1,14.1-20.2,30.3-18.2,52.5c6.1,34.4,22.2,60.6,42.4,86.9c22.2,32.3,48.5,60.6,76.8,88.9
	c20.2,18.2,40.4,36.4,64.7,48.5c16.2,8.1,34.4,14.1,52.5,8.1c8.1-2,16.2-8.1,24.3-14.1c18.2-16.2,36.4-34.4,54.6-48.5
	c22.2-16.2,48.5-16.2,72.8-6.1s44.5,26.3,64.7,44.5c12.1,12.1,26.3,22.2,38.4,34.4c12.1,14.1,26.3,28.3,30.3,46.5
	c4,16.2,0,32.3-12.1,42.4c-22.2,20.2-44.5,42.4-68.7,60.6c-28.3,20.2-60.6,32.3-97,36.4c-12.1,2-26.3,4-38.4,2
	c-34.4,0-66.7-8.1-99-20.2c-32.3-12.1-62.7-28.3-90.9-50.5c-18.2-14.1-36.4-28.3-54.6-42.4c-18.2-16.2-36.4-32.3-52.5-48.5
	c-26.3-22.2-48.5-46.5-68.7-74.8c-22.2-28.3-42.4-56.6-60.6-86.9c-28.3-42.4-48.5-90.9-58.6-139.5
	C166.4,278.9,164.4,258.7,162.4,236.5z"/>
</svg>
