<?xml version="1.0" encoding="utf-8"?>
<!-- Generator: Adobe Illustrator 18.1.1, SVG Export Plug-In . SVG Version: 6.00 Build 0)  -->
<svg version="1.1" id="Layer_1" xmlns="http://www.w3.org/2000/svg" xmlns:xlink="http://www.w3.org/1999/xlink" x="0px" y="0px"
	 viewBox="0 0 192.8 192.8" enable-background="new 0 0 192.8 192.8" xml:space="preserve">
<path fill="#FFFFFF" d="M97.3,11.4l-84,47.8v17.3h12.9v59.4h140.1V76.4h13.1V59.6L97.3,11.4z M150.2,120.7H43.3V61.1l54-31.7
	l52.9,31.7V120.7z"/>
<polygon fill-rule="evenodd" clip-rule="evenodd" fill="#FFFFFF" points="68.6,83.8 68.6,69.1 124.5,69.1 124.5,83.8 68.6,83.8 "/>
<polygon fill-rule="evenodd" clip-rule="evenodd" fill="#FFFFFF" points="68.6,91 124.5,91 124.5,105.6 68.6,105.6 68.6,91 "/>
<path fill="#FFFFFF" d="M108.8,162.7H99v18.7h9.6c7.7,0,12.2-1.7,12.2-9C120.8,164.8,115.9,162.7,108.8,162.7z M108.4,177.4h-4.2
	v-10.6h4.7c3.3,0,6.3,1.9,6.3,5.7C115.2,176.6,112.3,177.4,108.4,177.4z"/>
<path fill="#FFFFFF" d="M166,173.6c3.5-0.5,5.1-1.9,5.1-5c0-4.3-2.1-5.9-7.3-5.9h-13.6v18.7h5.1v-7.8h4.9l5.4,7.8h5.6L166,173.6z
	 M162.9,169.6h-7.5v-2.8h7.7c2.1,0,3,0.2,3,1.4C166.2,169.6,165.5,169.6,162.9,169.6z"/>
<polygon fill-rule="evenodd" clip-rule="evenodd" fill="#FFFFFF" points="70.8,162.7 70.8,181.4 75.7,181.4 75.7,170 85.5,181.4 
	91.4,181.4 91.4,162.7 86.5,162.7 86.5,174.3 76.7,162.7 70.8,162.7 "/>
<polygon fill-rule="evenodd" clip-rule="evenodd" fill="#FFFFFF" points="22.6,162.7 22.6,181.4 41.1,181.4 41.1,177.4 27.7,177.1 
	27.7,162.7 22.6,162.7 "/>
<polygon fill-rule="evenodd" clip-rule="evenodd" fill="#FFFFFF" points="46.3,181.4 64.4,181.4 64.4,177.4 51.7,177.4 51.7,173.3 
	62.3,173.3 62.3,169.6 51.7,169.6 51.7,166.7 64.4,166.7 64.4,162.7 46.3,162.7 46.3,181.4 "/>
<polygon fill-rule="evenodd" clip-rule="evenodd" fill="#FFFFFF" points="126.5,162.7 126.5,181.4 144.3,181.1 144.3,177.4 
	131.7,177.4 131.7,173.3 142.4,173.3 142.4,169.6 131.7,169.6 131.7,166.7 144.3,166.7 144.3,162.7 126.5,162.7 "/>
<path fill="#FFFFFF" d="M67.9,141.3h-4l-4.7,16.8h3.4l1-3.8h4.2l1,3.8h3.6L67.9,141.3z M64.4,151.5l1.4-6.6l1.6,6.6H64.4z"/>
<path fill="#FFFFFF" d="M43.5,155.7c0.7-1.4,0.9-2.4,0.9-4.5v-3.5c0-4-0.9-6.9-5.6-6.9c-4.2,0-5.6,2.4-5.6,6.6v4.5
	c0,5.7,3.3,5.9,12.9,5.9l0.2-1.2L43.5,155.7z M40.9,151.9c0,3.1-0.2,3.8-2.1,3.8c-1.6,0-2.1-0.9-2.1-4v-4c0-3.1,0.2-4,2.3-4
	c1.6,0,1.9,0.5,1.9,3.8V151.9z"/>
<path fill-rule="evenodd" clip-rule="evenodd" fill="#FFFFFF" d="M128.6,153.6c0,2.6,1.6,4.7,5.4,4.7c3,0,5.8-2.1,5.8-4.7
	c0-4-7.5-5.9-7.5-8.5c0-0.9,0.9-1.4,1.9-1.4c1.4,0,2.1,0.9,2.8,2.4l2.3-0.9c-0.2-2.4-1.9-4.3-5.4-4.3c-2.8,0-5.1,1.4-5.1,4.3
	c0,4.7,7.5,5.9,7.5,9c0,1.2-0.7,1.7-2.1,1.7c-1.4,0-2.3-0.9-2.8-2.6L128.6,153.6L128.6,153.6z"/>
<path fill="#FFFFFF" d="M108.9,140.8c-3.5,0-5.6,1.9-5.6,6.4v5.4c0,4,1.2,5.7,5.6,5.7c4.4,0,5.6-1.9,5.6-6.4v-5.2
	C114.5,142.5,113.3,140.8,108.9,140.8z M111,151.9c0,2.8-0.7,3.8-2.1,3.8c-1.9,0-2.1-1.2-2.1-3.5V147c0-2.1,0.2-3.5,2.1-3.5
	c1.9,0,2.1,1.7,2.1,3.5V151.9z"/>
<path fill-rule="evenodd" clip-rule="evenodd" fill="#FFFFFF" d="M159.9,151.9c0,5,1.4,6.4,6.1,6.4c3.6,0,4.7-1.7,4.7-3.5v-5.4h-4.9
	v2.6h1.6v1.9c0,1.4-0.5,2.1-1.6,2.1c-2.3,0-2.6-1.7-2.6-4v-3.8c0-2.8,0.2-4.7,2.6-4.7c1.6,0,2.6,1.2,2.8,2.8l2.3-0.9
	c-0.2-2.8-2.1-4.5-5.4-4.5c-4.7,0-5.6,2.6-5.6,6.2V151.9L159.9,151.9z"/>
<path fill-rule="evenodd" clip-rule="evenodd" fill="#FFFFFF" d="M115.9,141.3v9.7c0,5.7,1,7.5,5.9,7.5c3.7,0,5.1-2.1,5.1-7v-10.2
	h-3.3v9.7c0,3.8-0.2,4.7-2.1,4.7c-1.9,0-2.1-1.4-2.1-5v-9.5H115.9L115.9,141.3z"/>
<polygon fill-rule="evenodd" clip-rule="evenodd" fill="#FFFFFF" points="147.2,141.3 147.2,158.1 150,158.1 150,146.7 154,158.1 
	158.2,158.1 158.2,141.3 155.4,141.3 155.4,151.7 151.6,141.3 147.2,141.3 "/>
<path fill-rule="evenodd" clip-rule="evenodd" fill="#FFFFFF" d="M47.8,141.3v10.2c0,4.7,0.5,6.9,5.1,6.9c5.4,0,5.6-2.6,5.6-7.3
	v-9.7h-3.3v9.9c0,3.3-0.5,4.3-2.1,4.3c-1.9,0-2.1-0.9-2.1-4.7v-9.5H47.8L47.8,141.3z"/>
<polygon fill-rule="evenodd" clip-rule="evenodd" fill="#FFFFFF" points="90.3,141.3 90.3,158.1 93.6,158.1 93.6,150.5 97.6,150.5 
	97.6,158.1 100.8,158.1 100.8,141.3 97.6,141.3 97.6,147.7 93.6,147.7 93.6,141.3 90.3,141.3 "/>
<polygon fill-rule="evenodd" clip-rule="evenodd" fill="#FFFFFF" points="22.3,141.3 22.3,158.1 30.8,158.1 30.8,155.5 25.6,155.5 
	25.6,150.8 30.3,150.8 30.3,148.4 25.6,148.4 25.6,143.9 30.8,143.9 30.8,141.3 22.3,141.3 "/>
<polygon fill-rule="evenodd" clip-rule="evenodd" fill="#FFFFFF" points="74.1,141.3 74.1,158.1 81.8,158.1 81.8,155.5 76.9,155.5 
	76.9,141.3 74.1,141.3 "/>
<polygon fill-rule="evenodd" clip-rule="evenodd" fill="#FFFFFF" points="141.6,141.3 141.6,158.1 144.6,158.1 144.6,141.3 
	141.6,141.3 "/>
</svg>
