<?xml version="1.0" encoding="utf-8"?>
<!-- Generator: Adobe Illustrator 18.1.1, SVG Export Plug-In . SVG Version: 6.00 Build 0)  -->
<svg version="1.1" id="Layer_1" xmlns="http://www.w3.org/2000/svg" xmlns:xlink="http://www.w3.org/1999/xlink" x="0px" y="0px"
	 viewBox="0 0 329.1 405.2" enable-background="new 0 0 329.1 405.2" xml:space="preserve">
<g id="lock_2_">
	<path fill="#FFFFFF" d="M316.6,172.2H296v-77c0-47.4-44.5-92.3-91.5-92.3h-78.6c-47,0-91.5,44.9-91.5,92.3v77H13.9
		c-5.6,0-10.2,4-10.2,9v212.7c0,5,4.6,9,10.2,9h302.7c5.6,0,10.2-4,10.2-9V181.2C326.8,176.2,322.2,172.2,316.6,172.2z M96,95.2
		c0-21.5,9.7-30.7,30.8-30.7h76.9c21.1,0,30.8,9.2,30.8,30.7v77H96V95.2z M183.8,287.5v47.7c0,5.1-4.2,9.3-9.3,9.3h-18.6
		c-5.1,0-9.3-4.2-9.3-9.3v-47.7c-11.1-6.4-18.6-18.3-18.6-32c0-20.5,16.6-37.1,37.1-37.1c20.5,0,37.1,16.6,37.1,37.1
		C202.3,269.3,194.8,281.1,183.8,287.5z"/>
</g>
</svg>
