<?xml version="1.0" encoding="utf-8"?>
<!-- Generator: Adobe Illustrator 18.1.1, SVG Export Plug-In . SVG Version: 6.00 Build 0)  -->
<svg version="1.1" id="Layer_1" xmlns="http://www.w3.org/2000/svg" xmlns:xlink="http://www.w3.org/1999/xlink" x="0px" y="0px"
	 viewBox="0 0 1024 768" enable-background="new 0 0 1024 768" xml:space="preserve">
<path fill="#F08921" d="M510.8,739.2c-151.2,0-302.4,0-453.6,0c-14.4,0-19.2-4.8-19.2-19.2c0-225.6,0-451.2,0-676.8
	C38,26.4,42.8,24,57.2,24c302.4,0,604.8,0,909.6,0c16.8,0,19.2,4.8,19.2,19.2c0,225.6,0,451.2,0,676.8c0,16.8-4.8,19.2-19.2,19.2
	C813.2,739.2,662,739.2,510.8,739.2z M158,91.2c0,7.2,4.8,7.2,7.2,12c103.2,105.6,206.4,211.2,312,314.4c26.4,26.4,50.4,26.4,76.8,0
	C657.2,312,762.8,208.8,866,103.2c2.4-2.4,9.6-4.8,7.2-12C633.2,91.2,395.6,91.2,158,91.2z M153.2,669.6c240,0,477.6,0,715.2,0
	c-7.2-7.2-12-14.4-19.2-21.6C791.6,588,734,528,674,470.4C659.6,456,647.6,432,630.8,432c-14.4,0-26.4,24-40.8,36
	c-48,45.6-117.6,45.6-163.2-2.4c-7.2-9.6-16.8-16.8-24-26.4c-9.6-12-16.8-14.4-28.8,0c-36,38.4-72,74.4-108,110.4
	C230,590.4,194,628.8,153.2,669.6z M107.6,151.2c0,151.2,0,309.6,0,468c2.4-2.4,4.8-2.4,7.2-4.8c74.4-74.4,146.4-148.8,220.8-223.2
	c9.6-9.6,7.2-14.4-2.4-21.6C256.4,295.2,179.6,220.8,107.6,151.2z M916.4,621.6c0-160.8,0-316.8,0-470.4c-24,24-50.4,48-74.4,72
	C791.6,273.6,743.6,324,693.2,372c-4.8,4.8-12,9.6-2.4,19.2C765.2,465.6,839.6,542.4,916.4,621.6z"/>
</svg>
