<?xml version="1.0" encoding="utf-8"?>
<!-- Generator: Adobe Illustrator 18.1.1, SVG Export Plug-In . SVG Version: 6.00 Build 0)  -->
<svg version="1.1" id="Layer_1" xmlns="http://www.w3.org/2000/svg" xmlns:xlink="http://www.w3.org/1999/xlink" x="0px" y="0px"
	 viewBox="0 0 216 108" enable-background="new 0 0 216 108" xml:space="preserve">
<rect x="5.8" y="8" fill="none" stroke="#FFFFFF" stroke-width="2.6289" width="205.6" height="92.1"/>
<rect x="13.2" y="15.1" fill="none" stroke="#FFFFFF" stroke-width="1.7511" width="190" height="77.9"/>
<polyline fill="#FFFFFF" points="67.1,56.8 66.9,39 74.1,39 74.1,68.3 67.6,68.3 56.4,50.6 56.6,68.3 49.4,68.3 49.4,39 55.9,39 
	67.1,56.8 "/>
<path fill="#FFFFFF" d="M108.4,57.3c-1.7,6.9-7.7,11.5-14.8,11.5c-9.2,0-15.4-7.3-15.4-15.2c0-7.5,5.8-15.1,15.3-15.1
	c9.2,0,14.1,7.1,14.9,11.7h-7.8c-0.8-2.2-3-5.1-7.1-5.1c-5,0-7.8,4.4-7.8,8.5c0,4.4,3,8.7,7.9,8.7c4.7,0,6.6-3.9,7-4.9H108.4"/>
<path fill="#FFFFFF" d="M119.7,39v17.7c0,1,0,2.4,0.5,3.5c0.5,1.1,1.5,2.1,3.3,2.1c1.9,0,2.8-0.8,3.2-1.9c0.5-1.1,0.5-2.5,0.5-3.7
	V39h7.5v17.7c0,4.9-1.1,7.1-2.9,9c-1.9,1.9-4.5,3.2-8.2,3.2c-2.1,0-6-0.5-8.4-3.1c-2.4-2.7-2.9-4.7-2.9-9V39H119.7"/>
<path fill="#FFFFFF" d="M144.1,68.3H136L147.6,39h6.4l11.2,29.3h-8.2l-1.4-4.2h-10.2L144.1,68.3 M150.5,47.9l-3.2,10.2h6.4
	L150.5,47.9z"/>
<polyline fill="#FFFFFF" points="44.8,21.7 43.3,19.3 44.1,19.3 45.2,21.1 46.2,19.3 47,19.3 45.5,21.7 45.5,23.3 44.8,23.3 
	44.8,21.7 "/>
<path fill="#FFFFFF" d="M46.6,21.9c0-0.9,0.5-1.5,1.4-1.5c0.9,0,1.4,0.6,1.4,1.5c0,0.9-0.5,1.5-1.4,1.5
	C47.2,23.4,46.6,22.7,46.6,21.9 M48.9,21.9c0-0.5-0.2-1-0.8-1c-0.6,0-0.8,0.5-0.8,1c0,0.5,0.3,1,0.8,1
	C48.6,22.9,48.9,22.4,48.9,21.9"/>
<path fill="#FFFFFF" d="M52.6,23.3h-0.6v-0.4h0c-0.2,0.3-0.5,0.5-0.8,0.5c-0.7,0-1.1-0.4-1.1-1.1v-1.8h0.6v1.8
	c0,0.5,0.2,0.7,0.5,0.7c0.5,0,0.7-0.3,0.7-0.8v-1.7h0.6V23.3"/>
<path fill="#FFFFFF" d="M53.2,20.4h0.6V21h0c0.1-0.3,0.4-0.6,0.8-0.6c0.1,0,0.2,0,0.2,0V21c-0.1,0-0.2,0-0.3,0c-0.4,0-0.8,0.3-0.8,1
	v1.4h-0.6V20.4"/>
<path fill="#FFFFFF" d="M57.2,22.4c0,0.4,0.3,0.5,0.6,0.5c0.2,0,0.7-0.1,0.6-0.4c0-0.3-0.5-0.4-0.9-0.5c-0.5-0.1-0.9-0.3-0.9-0.9
	c0-0.6,0.7-0.8,1.2-0.8c0.6,0,1.1,0.2,1.2,0.9h-0.7c-0.1-0.3-0.3-0.4-0.6-0.4c-0.2,0-0.5,0-0.5,0.3c0,0.3,0.5,0.4,0.9,0.5
	c0.5,0.1,0.9,0.3,0.9,0.8c0,0.7-0.7,0.9-1.3,0.9c-0.7,0-1.3-0.3-1.3-1H57.2"/>
<path fill="#FFFFFF" d="M62,22.7c0,0.2,0,0.2,0.2,0.2c0,0,0.1,0,0.2,0v0.4c-0.1,0-0.3,0.1-0.4,0.1c-0.3,0-0.4-0.1-0.5-0.3
	c-0.3,0.2-0.7,0.3-1,0.3c-0.5,0-1-0.3-1-0.8c0-0.7,0.6-0.8,1.1-0.9c0.5-0.1,0.9,0,0.9-0.4c0-0.3-0.3-0.4-0.6-0.4
	c-0.3,0-0.6,0.1-0.6,0.5h-0.6c0-0.7,0.7-1,1.3-1c0.6,0,1.1,0.2,1.1,0.8V22.7 M61.4,21.9C61.2,22,60.9,22,60.6,22
	c-0.3,0-0.5,0.1-0.5,0.5c0,0.3,0.4,0.4,0.6,0.4c0.3,0,0.7-0.1,0.7-0.5V21.9z"/>
<polyline fill="#FFFFFF" points="62.4,20.4 63.1,20.4 63.8,22.6 63.8,22.6 64.5,20.4 65.2,20.4 64.1,23.3 63.4,23.3 62.4,20.4 "/>
<path fill="#FFFFFF" d="M65.6,19.3h0.6v0.6h-0.6V19.3z M65.6,20.4h0.6v2.9h-0.6V20.4z"/>
<path fill="#FFFFFF" d="M66.9,20.4h0.6v0.4l0,0c0.2-0.3,0.5-0.5,0.9-0.5c0.6,0,1,0.3,1,1v2h-0.6v-1.8c0-0.4-0.2-0.6-0.6-0.6
	c-0.4,0-0.7,0.3-0.7,0.8v1.7h-0.6V20.4"/>
<path fill="#FFFFFF" d="M72.7,23.2c0,0.9-0.5,1.3-1.4,1.3c-0.6,0-1.2-0.2-1.3-0.9h0.6c0.1,0.4,0.4,0.4,0.7,0.4
	c0.5,0,0.7-0.3,0.7-0.7v-0.4h0c-0.2,0.3-0.5,0.5-0.9,0.5c-0.9,0-1.3-0.7-1.3-1.5c0-0.8,0.5-1.4,1.3-1.4c0.4,0,0.7,0.2,0.8,0.5h0
	v-0.4h0.6V23.2 M72.1,21.8c0-0.5-0.2-0.9-0.8-0.9c-0.6,0-0.8,0.5-0.8,1c0,0.5,0.2,0.9,0.8,0.9C71.9,22.8,72.1,22.3,72.1,21.8"/>
<path fill="#FFFFFF" d="M73.8,22.4c0,0.4,0.3,0.5,0.6,0.5c0.2,0,0.7-0.1,0.6-0.4c0-0.3-0.5-0.4-0.9-0.5c-0.5-0.1-0.9-0.3-0.9-0.9
	c0-0.6,0.7-0.8,1.2-0.8c0.6,0,1.1,0.2,1.2,0.9H75c-0.1-0.3-0.3-0.4-0.6-0.4c-0.2,0-0.5,0-0.5,0.3c0,0.3,0.5,0.4,0.9,0.5
	c0.5,0.1,0.9,0.3,0.9,0.8c0,0.7-0.7,0.9-1.3,0.9c-0.7,0-1.3-0.3-1.3-1H73.8"/>
<path fill="#FFFFFF" d="M77.5,20.4h0.5v-0.2c0-0.7,0.4-0.9,0.8-0.9c0.2,0,0.3,0,0.4,0v0.5c-0.1,0-0.2,0-0.3,0
	c-0.2,0-0.3,0.1-0.3,0.3v0.3h0.5v0.5h-0.5v2.4h-0.6v-2.4h-0.5V20.4"/>
<path fill="#FFFFFF" d="M80,22c0,0.4,0.2,0.8,0.8,0.8c0.4,0,0.6-0.2,0.7-0.5H82c-0.1,0.6-0.7,1-1.3,1c-0.9,0-1.4-0.6-1.4-1.5
	c0-0.8,0.5-1.5,1.4-1.5c0.9,0,1.5,0.8,1.3,1.7H80 M81.4,21.6c0-0.4-0.3-0.8-0.7-0.8c-0.4,0-0.7,0.3-0.7,0.8H81.4z"/>
<path fill="#FFFFFF" d="M85.3,23.3h-0.6v-0.4h0c-0.2,0.3-0.5,0.5-0.9,0.5c-0.9,0-1.3-0.7-1.3-1.5c0-1,0.6-1.5,1.2-1.5
	c0.4,0,0.8,0.1,1,0.4h0v-1.5h0.6V23.3 M83.8,22.9c0.6,0,0.8-0.5,0.8-1c0-0.6-0.3-1-0.8-1c-0.6,0-0.8,0.5-0.8,1
	C83,22.4,83.3,22.9,83.8,22.9"/>
<path fill="#FFFFFF" d="M86.4,22c0,0.4,0.2,0.8,0.8,0.8c0.4,0,0.6-0.2,0.7-0.5h0.6c-0.1,0.6-0.7,1-1.3,1c-0.9,0-1.4-0.6-1.4-1.5
	c0-0.8,0.5-1.5,1.4-1.5c0.9,0,1.5,0.8,1.3,1.7H86.4 M87.9,21.6c0-0.4-0.3-0.8-0.7-0.8c-0.4,0-0.7,0.3-0.7,0.8H87.9z"/>
<path fill="#FFFFFF" d="M89,20.4h0.6V21h0c0.1-0.3,0.4-0.6,0.8-0.6c0.1,0,0.2,0,0.2,0V21c-0.1,0-0.2,0-0.3,0c-0.4,0-0.8,0.3-0.8,1
	v1.4H89V20.4"/>
<path fill="#FFFFFF" d="M93.4,22.7c0,0.2,0,0.2,0.1,0.2c0,0,0.1,0,0.2,0v0.4c-0.1,0-0.3,0.1-0.4,0.1c-0.3,0-0.4-0.1-0.5-0.3
	c-0.2,0.2-0.7,0.3-1,0.3c-0.5,0-1-0.3-1-0.8c0-0.7,0.6-0.8,1.1-0.9c0.5-0.1,0.9,0,0.9-0.4c0-0.3-0.3-0.4-0.6-0.4
	c-0.4,0-0.6,0.1-0.6,0.5h-0.6c0-0.7,0.7-1,1.3-1c0.6,0,1.1,0.2,1.1,0.8V22.7 M92.7,21.9C92.5,22,92.2,22,91.9,22
	c-0.3,0-0.5,0.1-0.5,0.5c0,0.3,0.4,0.4,0.6,0.4c0.3,0,0.7-0.1,0.7-0.5V21.9z"/>
<rect x="94.1" y="19.4" fill="#FFFFFF" width="0.6" height="4"/>
<rect x="95.4" y="19.4" fill="#FFFFFF" width="0.6" height="4"/>
<path fill="#FFFFFF" d="M96.4,20.4h0.7l0.7,2.1h0l0.7-2.1h0.7l-1.1,3c-0.2,0.5-0.4,1-1,1c-0.2,0-0.3,0-0.4,0v-0.5c0.1,0,0.2,0,0.3,0
	c0.3,0,0.4-0.2,0.4-0.4l0.1-0.2L96.4,20.4"/>
<path fill="#FFFFFF" d="M101.1,19.3h0.6v0.6h-0.6V19.3z M101.1,20.4h0.6v2.9h-0.6V20.4z"/>
<path fill="#FFFFFF" d="M102.4,20.4h0.6v0.4l0,0c0.2-0.3,0.5-0.5,0.9-0.5c0.6,0,1,0.3,1,1v2h-0.6v-1.8c0-0.4-0.2-0.6-0.6-0.6
	c-0.4,0-0.7,0.3-0.7,0.8v1.7h-0.6V20.4"/>
<path fill="#FFFFFF" d="M106.1,22.4c0,0.4,0.3,0.5,0.6,0.5c0.2,0,0.7-0.1,0.6-0.4c0-0.3-0.5-0.4-0.9-0.5c-0.5-0.1-0.9-0.3-0.9-0.9
	c0-0.6,0.7-0.8,1.2-0.8c0.6,0,1.1,0.2,1.2,0.9h-0.7c-0.1-0.3-0.3-0.4-0.6-0.4c-0.2,0-0.5,0-0.5,0.3c0,0.3,0.5,0.4,0.9,0.5
	c0.5,0.1,0.9,0.3,0.9,0.8c0,0.7-0.7,0.9-1.3,0.9c-0.7,0-1.3-0.3-1.3-1H106.1"/>
<path fill="#FFFFFF" d="M111,23.3h-0.6v-0.4h0c-0.2,0.3-0.5,0.5-0.8,0.5c-0.7,0-1.1-0.4-1.1-1.1v-1.8h0.6v1.8c0,0.5,0.2,0.7,0.5,0.7
	c0.5,0,0.7-0.3,0.7-0.8v-1.7h0.6V23.3"/>
<path fill="#FFFFFF" d="M111.7,20.4h0.6V21h0c0.1-0.3,0.4-0.6,0.8-0.6c0.1,0,0.2,0,0.2,0V21c-0.1,0-0.2,0-0.3,0
	c-0.4,0-0.8,0.3-0.8,1v1.4h-0.6V20.4"/>
<path fill="#FFFFFF" d="M114,22c0,0.4,0.2,0.8,0.8,0.8c0.4,0,0.6-0.2,0.7-0.5h0.6c-0.1,0.6-0.7,1-1.3,1c-0.9,0-1.4-0.6-1.4-1.5
	c0-0.8,0.5-1.5,1.4-1.5c0.9,0,1.5,0.8,1.3,1.7H114 M115.5,21.6c0-0.4-0.3-0.8-0.7-0.8c-0.4,0-0.7,0.3-0.8,0.8H115.5z"/>
<path fill="#FFFFFF" d="M119.3,23.3h-0.6v-0.4h0c-0.2,0.3-0.5,0.5-0.9,0.5c-0.9,0-1.3-0.7-1.3-1.5c0-1,0.6-1.5,1.2-1.5
	c0.4,0,0.8,0.1,1,0.4h0v-1.5h0.6V23.3 M117.9,22.9c0.6,0,0.8-0.5,0.8-1c0-0.6-0.3-1-0.8-1c-0.6,0-0.8,0.5-0.8,1
	C117.1,22.4,117.3,22.9,117.9,22.9"/>
<path fill="#FFFFFF" d="M121.2,20.4h0.5v-0.9h0.6v0.9h0.6v0.5h-0.6v1.5c0,0.3,0,0.4,0.3,0.4c0.1,0,0.2,0,0.3,0v0.5
	c-0.1,0-0.3,0-0.4,0c-0.7,0-0.8-0.3-0.8-0.7v-1.7h-0.5V20.4"/>
<path fill="#FFFFFF" d="M123.2,21.9c0-0.9,0.5-1.5,1.4-1.5c0.9,0,1.4,0.6,1.4,1.5c0,0.9-0.5,1.5-1.4,1.5
	C123.8,23.4,123.2,22.7,123.2,21.9 M125.5,21.9c0-0.5-0.3-1-0.8-1c-0.6,0-0.8,0.5-0.8,1c0,0.5,0.2,1,0.8,1
	C125.2,22.9,125.5,22.4,125.5,21.9"/>
<path fill="#FFFFFF" d="M130.6,22.7c0,0.2,0,0.2,0.1,0.2c0,0,0.1,0,0.2,0v0.4c-0.1,0-0.3,0.1-0.4,0.1c-0.3,0-0.4-0.1-0.5-0.3
	c-0.2,0.2-0.6,0.3-1,0.3c-0.5,0-1-0.3-1-0.8c0-0.7,0.6-0.8,1.1-0.9c0.5-0.1,0.9,0,0.9-0.4c0-0.3-0.3-0.4-0.6-0.4
	c-0.4,0-0.6,0.1-0.6,0.5h-0.6c0-0.7,0.7-1,1.3-1c0.6,0,1.1,0.2,1.1,0.8V22.7 M130,21.9c-0.2,0.1-0.5,0.1-0.8,0.2
	c-0.3,0-0.5,0.1-0.5,0.5c0,0.3,0.4,0.4,0.6,0.4c0.3,0,0.7-0.1,0.7-0.5V21.9z"/>
<path fill="#FFFFFF" d="M131,20.4h0.5v-0.9h0.6v0.9h0.6v0.5h-0.6v1.5c0,0.3,0,0.4,0.3,0.4c0.1,0,0.2,0,0.3,0v0.5c-0.1,0-0.3,0-0.4,0
	c-0.7,0-0.8-0.3-0.8-0.7v-1.7H131V20.4"/>
<rect x="134.7" y="19.4" fill="#FFFFFF" width="0.6" height="4"/>
<path fill="#FFFFFF" d="M136.5,22c0,0.4,0.2,0.8,0.8,0.8c0.4,0,0.6-0.2,0.7-0.5h0.6c-0.1,0.6-0.7,1-1.3,1c-0.9,0-1.4-0.6-1.4-1.5
	c0-0.8,0.5-1.5,1.4-1.5c0.9,0,1.5,0.8,1.3,1.7H136.5 M137.9,21.6c0-0.4-0.3-0.8-0.7-0.8c-0.4,0-0.7,0.3-0.8,0.8H137.9z"/>
<path fill="#FFFFFF" d="M141.5,22.7c0,0.2,0,0.2,0.2,0.2c0,0,0.1,0,0.2,0v0.4c-0.1,0-0.3,0.1-0.4,0.1c-0.3,0-0.4-0.1-0.5-0.3
	c-0.2,0.2-0.7,0.3-1,0.3c-0.5,0-1-0.3-1-0.8c0-0.7,0.6-0.8,1.1-0.9c0.5-0.1,0.9,0,0.9-0.4c0-0.3-0.3-0.4-0.6-0.4
	c-0.4,0-0.6,0.1-0.6,0.5H139c0-0.7,0.7-1,1.3-1c0.6,0,1.1,0.2,1.1,0.8V22.7 M140.8,21.9c-0.2,0.1-0.5,0.1-0.8,0.2
	c-0.3,0-0.5,0.1-0.5,0.5c0,0.3,0.4,0.4,0.6,0.4c0.3,0,0.7-0.1,0.7-0.5V21.9z"/>
<path fill="#FFFFFF" d="M142.6,22.4c0,0.4,0.3,0.5,0.6,0.5c0.2,0,0.7-0.1,0.6-0.4c0-0.3-0.5-0.4-0.9-0.5c-0.5-0.1-0.9-0.3-0.9-0.9
	c0-0.6,0.7-0.8,1.2-0.8c0.6,0,1.1,0.2,1.2,0.9h-0.7c-0.1-0.3-0.3-0.4-0.6-0.4c-0.2,0-0.5,0-0.5,0.3c0,0.3,0.5,0.4,0.9,0.5
	c0.5,0.1,0.9,0.3,0.9,0.8c0,0.7-0.7,0.9-1.3,0.9c-0.7,0-1.3-0.3-1.3-1H142.6"/>
<path fill="#FFFFFF" d="M144.7,20.4h0.5v-0.9h0.6v0.9h0.6v0.5h-0.6v1.5c0,0.3,0,0.4,0.3,0.4c0.1,0,0.2,0,0.3,0v0.5
	c-0.1,0-0.3,0-0.4,0c-0.7,0-0.8-0.3-0.8-0.7v-1.7h-0.5V20.4"/>
<path fill="#FFFFFF" d="M148.8,22.1c0,0.5,0.2,0.8,0.7,0.8v-1.3c-0.6-0.2-1.3-0.4-1.3-1.2c0-0.7,0.6-1.1,1.3-1.1v-0.4h0.2v0.4
	c0.7,0,1.2,0.3,1.2,1.1h-0.6c0-0.4-0.2-0.6-0.6-0.6v1.2c0.7,0.2,1.3,0.4,1.3,1.2c0,0.8-0.6,1.2-1.3,1.2v0.4h-0.2v-0.4
	c-0.8,0-1.4-0.5-1.3-1.3H148.8 M149.5,19.8c-0.4,0-0.6,0.2-0.6,0.5c0,0.4,0.3,0.5,0.6,0.6V19.8z M149.7,22.9c0.4,0,0.7-0.2,0.7-0.7
	c0-0.4-0.3-0.5-0.7-0.6V22.9z"/>
<path fill="#FFFFFF" d="M151.4,20.1c0.5,0,1-0.2,1.1-0.6h0.5v3.9h-0.7v-2.7h-1V20.1"/>
<path fill="#FFFFFF" d="M157.1,21.4c0,0.9-0.2,2-1.3,2c-1.1,0-1.3-1.1-1.3-2s0.2-2,1.3-2C156.9,19.3,157.1,20.5,157.1,21.4
	 M156.4,21.4c0-0.8-0.2-1.5-0.7-1.5c-0.6,0-0.7,0.7-0.7,1.5c0,0.8,0.2,1.5,0.7,1.5C156.3,22.8,156.4,22.2,156.4,21.4"/>
<path fill="#FFFFFF" d="M160.2,21.4c0,0.9-0.2,2-1.3,2c-1.1,0-1.3-1.1-1.3-2s0.2-2,1.3-2C159.9,19.3,160.2,20.5,160.2,21.4
	 M159.5,21.4c0-0.8-0.2-1.5-0.7-1.5c-0.6,0-0.7,0.7-0.7,1.5c0,0.8,0.2,1.5,0.7,1.5C159.4,22.8,159.5,22.2,159.5,21.4"/>
<path fill="#FFFFFF" d="M160.7,22.6h0.8v0.7c0,0.4-0.3,0.8-0.7,0.9v-0.3c0.2-0.1,0.4-0.3,0.4-0.5h-0.4V22.6"/>
<path fill="#FFFFFF" d="M164.8,21.4c0,0.9-0.2,2-1.3,2c-1.1,0-1.3-1.1-1.3-2s0.2-2,1.3-2C164.5,19.3,164.8,20.5,164.8,21.4
	 M164.1,21.4c0-0.8-0.2-1.5-0.7-1.5c-0.6,0-0.7,0.7-0.7,1.5c0,0.8,0.2,1.5,0.7,1.5C164,22.8,164.1,22.2,164.1,21.4"/>
<path fill="#FFFFFF" d="M167.9,21.4c0,0.9-0.2,2-1.3,2c-1.1,0-1.3-1.1-1.3-2s0.2-2,1.3-2C167.6,19.3,167.9,20.5,167.9,21.4
	 M167.2,21.4c0-0.8-0.1-1.5-0.7-1.5c-0.6,0-0.7,0.7-0.7,1.5c0,0.8,0.2,1.5,0.7,1.5C167.1,22.8,167.2,22.2,167.2,21.4"/>
<path fill="#FFFFFF" d="M170.9,21.4c0,0.9-0.2,2-1.3,2c-1.1,0-1.3-1.1-1.3-2s0.2-2,1.3-2C170.7,19.3,170.9,20.5,170.9,21.4
	 M170.3,21.4c0-0.8-0.2-1.5-0.7-1.5s-0.7,0.7-0.7,1.5c0,0.8,0.2,1.5,0.7,1.5S170.3,22.2,170.3,21.4"/>
<path fill="#FFFFFF" d="M19.4,29.3c0,0.2,0,0.2,0.1,0.2c0,0,0.1,0,0.2,0v0.4c-0.1,0-0.3,0.1-0.4,0.1c-0.3,0-0.4-0.1-0.5-0.3
	c-0.2,0.2-0.6,0.3-1,0.3c-0.5,0-1-0.3-1-0.8c0-0.7,0.6-0.8,1.1-0.9c0.5-0.1,0.9,0,0.9-0.4c0-0.3-0.3-0.4-0.6-0.4
	c-0.4,0-0.6,0.1-0.6,0.5h-0.6c0-0.7,0.7-1,1.3-1c0.6,0,1.1,0.2,1.1,0.8V29.3 M18.7,28.5c-0.2,0.1-0.5,0.1-0.8,0.2
	c-0.3,0-0.5,0.1-0.5,0.5c0,0.3,0.4,0.4,0.6,0.4c0.3,0,0.7-0.1,0.7-0.5V28.5z"/>
<path fill="#FFFFFF" d="M20,27.1h0.6v0.4l0,0c0.2-0.3,0.5-0.5,0.9-0.5c0.6,0,1,0.3,1,1v2h-0.6v-1.8c0-0.4-0.2-0.6-0.6-0.6
	c-0.4,0-0.7,0.3-0.7,0.8v1.7H20V27.1"/>
<path fill="#FFFFFF" d="M25.9,29.9h-0.6v-0.4h0c-0.2,0.3-0.5,0.5-0.9,0.5c-0.9,0-1.3-0.7-1.3-1.5c0-1,0.6-1.5,1.2-1.5
	c0.4,0,0.8,0.1,1,0.4h0V26h0.6V29.9 M24.5,29.5c0.6,0,0.8-0.5,0.8-1c0-0.6-0.3-1-0.8-1c-0.6,0-0.8,0.5-0.8,1
	C23.7,29,23.9,29.5,24.5,29.5"/>
<path fill="#FFFFFF" d="M28.1,26h0.6v1.5h0c0.2-0.3,0.5-0.4,0.8-0.4c0.9,0,1.3,0.7,1.3,1.5c0,0.8-0.4,1.5-1.2,1.5
	c-0.4,0-0.8-0.1-1-0.5h0v0.4h-0.6V26 M29.6,27.5c-0.5,0-0.8,0.4-0.8,1c0,0.6,0.3,1,0.8,1c0.6,0,0.8-0.5,0.8-1
	C30.4,28,30.1,27.5,29.6,27.5"/>
<path fill="#FFFFFF" d="M33.9,29.3c0,0.2,0,0.2,0.1,0.2c0,0,0.1,0,0.2,0v0.4c-0.1,0-0.3,0.1-0.4,0.1c-0.3,0-0.4-0.1-0.5-0.3
	c-0.2,0.2-0.6,0.3-1,0.3c-0.5,0-1-0.3-1-0.8c0-0.7,0.6-0.8,1.1-0.9c0.5-0.1,0.9,0,0.9-0.4c0-0.3-0.3-0.4-0.6-0.4
	c-0.4,0-0.6,0.1-0.6,0.5h-0.6c0-0.7,0.7-1,1.3-1c0.6,0,1.1,0.2,1.1,0.8V29.3 M33.3,28.5c-0.2,0.1-0.5,0.1-0.8,0.2
	c-0.3,0-0.5,0.1-0.5,0.5c0,0.3,0.4,0.4,0.6,0.4c0.3,0,0.7-0.1,0.7-0.5V28.5z"/>
<path fill="#FFFFFF" d="M36.5,28c-0.1-0.3-0.3-0.5-0.7-0.5c-0.3,0-0.8,0.2-0.8,1c0,0.5,0.2,1,0.8,1c0.4,0,0.6-0.2,0.7-0.7h0.6
	C37,29.6,36.6,30,35.8,30c-0.9,0-1.4-0.6-1.4-1.5c0-0.9,0.5-1.5,1.4-1.5c0.7,0,1.2,0.3,1.3,1H36.5"/>
<polyline fill="#FFFFFF" points="37.7,26 38.3,26 38.3,28.2 39.5,27.1 40.2,27.1 39.1,28.1 40.3,29.9 39.6,29.9 38.7,28.6 
	38.3,28.9 38.3,29.9 37.7,29.9 37.7,26 "/>
<path fill="#FFFFFF" d="M41.1,28.7c0,0.4,0.2,0.8,0.8,0.8c0.4,0,0.6-0.2,0.7-0.5h0.6c-0.1,0.6-0.7,1-1.3,1c-0.9,0-1.4-0.6-1.4-1.5
	c0-0.8,0.5-1.5,1.4-1.5c0.9,0,1.5,0.8,1.3,1.7H41.1 M42.6,28.3c0-0.4-0.3-0.8-0.7-0.8c-0.4,0-0.7,0.3-0.7,0.8H42.6z"/>
<path fill="#FFFFFF" d="M46.4,29.9h-0.6v-0.4h0c-0.2,0.3-0.5,0.5-0.9,0.5c-0.9,0-1.3-0.7-1.3-1.5c0-1,0.6-1.5,1.2-1.5
	c0.4,0,0.8,0.1,1,0.4h0V26h0.6V29.9 M45,29.5c0.6,0,0.8-0.5,0.8-1c0-0.6-0.3-1-0.8-1c-0.6,0-0.8,0.5-0.8,1
	C44.2,29,44.4,29.5,45,29.5"/>
<path fill="#FFFFFF" d="M48.7,26h0.6v1.5h0c0.2-0.3,0.5-0.4,0.9-0.4c0.9,0,1.3,0.7,1.3,1.5c0,0.8-0.4,1.5-1.2,1.5
	c-0.4,0-0.8-0.1-1-0.5h0v0.4h-0.6V26 M50.1,27.5c-0.5,0-0.8,0.4-0.8,1c0,0.6,0.3,1,0.8,1c0.6,0,0.8-0.5,0.8-1
	C50.9,28,50.6,27.5,50.1,27.5"/>
<path fill="#FFFFFF" d="M51.7,27.1h0.7l0.7,2.1h0l0.7-2.1h0.7l-1.1,3c-0.2,0.5-0.4,1-1,1c-0.2,0-0.3,0-0.4,0v-0.5c0.1,0,0.2,0,0.3,0
	c0.3,0,0.4-0.2,0.4-0.4l0.1-0.2L51.7,27.1"/>
<path fill="#FFFFFF" d="M56.1,27.1h0.5v-0.9h0.6v0.9h0.6v0.5h-0.6v1.5c0,0.3,0,0.4,0.3,0.4c0.1,0,0.2,0,0.3,0v0.5
	c-0.1,0-0.3,0-0.4,0c-0.7,0-0.8-0.3-0.8-0.7v-1.7h-0.5V27.1"/>
<path fill="#FFFFFF" d="M58.3,26h0.6v1.5h0c0.2-0.3,0.5-0.5,0.9-0.5c0.6,0,1,0.3,1,1v2h-0.6v-1.8c0-0.4-0.2-0.6-0.6-0.6
	c-0.4,0-0.7,0.3-0.7,0.8v1.7h-0.6V26"/>
<path fill="#FFFFFF" d="M61.9,28.7c0,0.4,0.2,0.8,0.8,0.8c0.4,0,0.6-0.2,0.7-0.5H64c-0.1,0.6-0.7,1-1.3,1c-0.9,0-1.4-0.6-1.4-1.5
	c0-0.8,0.5-1.5,1.4-1.5c0.9,0,1.5,0.8,1.4,1.7H61.9 M63.4,28.3c0-0.4-0.3-0.8-0.7-0.8c-0.4,0-0.7,0.3-0.7,0.8H63.4z"/>
<path fill="#FFFFFF" d="M65.8,27.1h0.5v-0.2c0-0.7,0.4-0.9,0.8-0.9c0.2,0,0.3,0,0.4,0v0.5c-0.1,0-0.2,0-0.3,0
	c-0.2,0-0.3,0.1-0.3,0.3v0.3h0.5v0.5h-0.5v2.4h-0.6v-2.4h-0.5V27.1"/>
<path fill="#FFFFFF" d="M70.3,29.9h-0.6v-0.4h0c-0.2,0.3-0.5,0.5-0.8,0.5c-0.7,0-1.1-0.4-1.1-1.1v-1.8h0.6v1.8
	c0,0.5,0.2,0.7,0.5,0.7c0.5,0,0.7-0.3,0.7-0.8v-1.7h0.6V29.9"/>
<rect x="71" y="26" fill="#FFFFFF" width="0.6" height="4"/>
<rect x="72.3" y="26" fill="#FFFFFF" width="0.6" height="4"/>
<path fill="#FFFFFF" d="M74.9,27.1h0.5v-0.2c0-0.7,0.4-0.9,0.8-0.9c0.2,0,0.3,0,0.4,0v0.5c-0.1,0-0.2,0-0.3,0
	c-0.2,0-0.3,0.1-0.3,0.3v0.3h0.5v0.5H76v2.4h-0.6v-2.4h-0.5V27.1"/>
<path fill="#FFFFFF" d="M79.3,29.3c0,0.2,0,0.2,0.1,0.2c0,0,0.1,0,0.2,0v0.4c-0.1,0-0.3,0.1-0.4,0.1c-0.3,0-0.4-0.1-0.5-0.3
	c-0.2,0.2-0.6,0.3-1,0.3c-0.5,0-1-0.3-1-0.8c0-0.7,0.6-0.8,1.1-0.9c0.5-0.1,0.9,0,0.9-0.4c0-0.3-0.3-0.4-0.6-0.4
	c-0.4,0-0.6,0.1-0.6,0.5h-0.6c0-0.7,0.7-1,1.3-1c0.6,0,1.1,0.2,1.1,0.8V29.3 M78.7,28.5c-0.2,0.1-0.5,0.1-0.8,0.2
	c-0.3,0-0.5,0.1-0.5,0.5c0,0.3,0.4,0.4,0.6,0.4c0.3,0,0.7-0.1,0.7-0.5V28.5z"/>
<path fill="#FFFFFF" d="M80,26h0.6v0.6H80V26z M80,27.1h0.6v2.9H80V27.1z"/>
<path fill="#FFFFFF" d="M81.1,27.1h0.5v-0.9h0.6v0.9h0.6v0.5h-0.6v1.5c0,0.3,0,0.4,0.3,0.4c0.1,0,0.2,0,0.3,0v0.5
	c-0.1,0-0.3,0-0.4,0c-0.7,0-0.8-0.3-0.8-0.7v-1.7h-0.5V27.1"/>
<path fill="#FFFFFF" d="M83.2,26h0.6v1.5h0c0.2-0.3,0.5-0.5,0.9-0.5c0.6,0,1,0.3,1,1v2h-0.6v-1.8c0-0.4-0.2-0.6-0.6-0.6
	c-0.4,0-0.7,0.3-0.7,0.8v1.7h-0.6V26"/>
<path fill="#FFFFFF" d="M90.3,29.3c0,0.2,0,0.2,0.1,0.2c0,0,0.1,0,0.2,0v0.4c-0.1,0-0.3,0.1-0.4,0.1c-0.3,0-0.4-0.1-0.5-0.3
	c-0.2,0.2-0.6,0.3-1,0.3c-0.5,0-1-0.3-1-0.8c0-0.7,0.6-0.8,1.1-0.9c0.5-0.1,0.9,0,0.9-0.4c0-0.3-0.3-0.4-0.6-0.4
	c-0.4,0-0.6,0.1-0.6,0.5h-0.6c0-0.7,0.7-1,1.3-1c0.6,0,1.1,0.2,1.1,0.8V29.3 M89.7,28.5c-0.2,0.1-0.5,0.1-0.8,0.2
	c-0.3,0-0.5,0.1-0.5,0.5c0,0.3,0.4,0.4,0.6,0.4c0.3,0,0.7-0.1,0.7-0.5V28.5z"/>
<path fill="#FFFFFF" d="M91,27.1h0.6v0.4l0,0c0.2-0.3,0.5-0.5,0.9-0.5c0.6,0,1,0.3,1,1v2h-0.6v-1.8c0-0.4-0.2-0.6-0.6-0.6
	c-0.4,0-0.7,0.3-0.7,0.8v1.7H91V27.1"/>
<path fill="#FFFFFF" d="M96.8,29.9h-0.6v-0.4h0c-0.2,0.3-0.5,0.5-0.9,0.5c-0.9,0-1.3-0.7-1.3-1.5c0-1,0.6-1.5,1.2-1.5
	c0.4,0,0.8,0.1,1,0.4h0V26h0.6V29.9 M95.4,29.5c0.6,0,0.8-0.5,0.8-1c0-0.6-0.3-1-0.8-1c-0.6,0-0.8,0.5-0.8,1
	C94.6,29,94.9,29.5,95.4,29.5"/>
<path fill="#FFFFFF" d="M101,28c0-0.3-0.3-0.5-0.7-0.5c-0.3,0-0.8,0.2-0.8,1c0,0.5,0.2,1,0.8,1c0.4,0,0.6-0.2,0.7-0.7h0.6
	c-0.1,0.7-0.6,1.2-1.3,1.2c-0.9,0-1.4-0.6-1.4-1.5c0-0.9,0.5-1.5,1.4-1.5c0.7,0,1.2,0.3,1.3,1H101"/>
<path fill="#FFFFFF" d="M102.1,27.1h0.6v0.6h0c0.1-0.3,0.4-0.6,0.8-0.6c0.1,0,0.2,0,0.2,0v0.6c-0.1,0-0.2,0-0.3,0
	c-0.4,0-0.8,0.3-0.8,1v1.4h-0.6V27.1"/>
<path fill="#FFFFFF" d="M104.5,28.7c0,0.4,0.2,0.8,0.8,0.8c0.4,0,0.6-0.2,0.7-0.5h0.6c-0.1,0.6-0.7,1-1.3,1c-0.9,0-1.4-0.6-1.4-1.5
	c0-0.8,0.5-1.5,1.4-1.5c0.9,0,1.5,0.8,1.3,1.7H104.5 M106,28.3c0-0.4-0.3-0.8-0.7-0.8c-0.4,0-0.7,0.3-0.7,0.8H106z"/>
<path fill="#FFFFFF" d="M109.8,29.9h-0.6v-0.4h0c-0.2,0.3-0.5,0.5-0.9,0.5c-0.9,0-1.3-0.7-1.3-1.5c0-1,0.6-1.5,1.2-1.5
	c0.4,0,0.8,0.1,1,0.4h0V26h0.6V29.9 M108.4,29.5c0.6,0,0.8-0.5,0.8-1c0-0.6-0.3-1-0.8-1c-0.6,0-0.8,0.5-0.8,1
	C107.6,29,107.8,29.5,108.4,29.5"/>
<path fill="#FFFFFF" d="M110.5,26h0.6v0.6h-0.6V26z M110.5,27.1h0.6v2.9h-0.6V27.1z"/>
<path fill="#FFFFFF" d="M111.5,27.1h0.5v-0.9h0.6v0.9h0.6v0.5h-0.6v1.5c0,0.3,0,0.4,0.3,0.4c0.1,0,0.2,0,0.3,0v0.5
	c-0.1,0-0.3,0-0.4,0c-0.7,0-0.8-0.3-0.8-0.7v-1.7h-0.5V27.1"/>
<path fill="#FFFFFF" d="M115,28.5c0-0.9,0.5-1.5,1.5-1.5c0.9,0,1.4,0.6,1.4,1.5c0,0.9-0.5,1.5-1.4,1.5C115.6,30,115,29.4,115,28.5
	 M117.3,28.5c0-0.5-0.3-1-0.8-1c-0.6,0-0.8,0.5-0.8,1c0,0.5,0.2,1,0.8,1C117,29.5,117.3,29,117.3,28.5"/>
<path fill="#FFFFFF" d="M118.2,27.1h0.5v-0.2c0-0.7,0.4-0.9,0.8-0.9c0.2,0,0.3,0,0.4,0v0.5c-0.1,0-0.2,0-0.3,0
	c-0.2,0-0.3,0.1-0.3,0.3v0.3h0.5v0.5h-0.5v2.4h-0.6v-2.4h-0.5V27.1"/>
<path fill="#FFFFFF" d="M121.4,27.1h0.5v-0.9h0.6v0.9h0.6v0.5h-0.6v1.5c0,0.3,0,0.4,0.3,0.4c0.1,0,0.2,0,0.3,0v0.5
	c-0.1,0-0.3,0-0.4,0c-0.7,0-0.8-0.3-0.8-0.7v-1.7h-0.5V27.1"/>
<path fill="#FFFFFF" d="M123.6,26h0.6v1.5h0c0.2-0.3,0.5-0.5,0.9-0.5c0.6,0,1,0.3,1,1v2h-0.6v-1.8c0-0.4-0.2-0.6-0.6-0.6
	c-0.4,0-0.7,0.3-0.7,0.8v1.7h-0.6V26"/>
<path fill="#FFFFFF" d="M127.2,28.7c0,0.4,0.2,0.8,0.8,0.8c0.4,0,0.6-0.2,0.7-0.5h0.6c-0.1,0.6-0.7,1-1.3,1c-0.9,0-1.4-0.6-1.4-1.5
	c0-0.8,0.5-1.5,1.4-1.5c0.9,0,1.5,0.8,1.4,1.7H127.2 M128.7,28.3c0-0.4-0.3-0.8-0.7-0.8c-0.4,0-0.7,0.3-0.8,0.8H128.7z"/>
<path fill="#FFFFFF" d="M131.4,26h0.7v2.3c0,0.5,0,1.1,0.9,1.1c0.9,0,0.9-0.6,0.9-1.1V26h0.7v2.5c0,1-0.6,1.5-1.6,1.5
	c-1,0-1.6-0.5-1.6-1.5V26"/>
<path fill="#FFFFFF" d="M135.4,27.1h0.6v0.4l0,0c0.2-0.3,0.5-0.5,0.9-0.5c0.6,0,1,0.3,1,1v2h-0.6v-1.8c0-0.4-0.2-0.6-0.6-0.6
	c-0.4,0-0.7,0.3-0.7,0.8v1.7h-0.6V27.1"/>
<path fill="#FFFFFF" d="M138.6,26h0.6v0.6h-0.6V26z M138.6,27.1h0.6v2.9h-0.6V27.1z"/>
<path fill="#FFFFFF" d="M139.6,27.1h0.5v-0.9h0.6v0.9h0.6v0.5h-0.6v1.5c0,0.3,0,0.4,0.3,0.4c0.1,0,0.2,0,0.3,0v0.5
	c-0.1,0-0.3,0-0.4,0c-0.7,0-0.8-0.3-0.8-0.7v-1.7h-0.5V27.1"/>
<path fill="#FFFFFF" d="M142.2,28.7c0,0.4,0.2,0.8,0.8,0.8c0.4,0,0.6-0.2,0.7-0.5h0.6c-0.1,0.6-0.7,1-1.3,1c-0.9,0-1.4-0.6-1.4-1.5
	c0-0.8,0.5-1.5,1.4-1.5c0.9,0,1.5,0.8,1.3,1.7H142.2 M143.7,28.3c0-0.4-0.3-0.8-0.7-0.8c-0.4,0-0.7,0.3-0.8,0.8H143.7z"/>
<path fill="#FFFFFF" d="M147.5,29.9h-0.6v-0.4h0c-0.2,0.3-0.5,0.5-0.9,0.5c-0.9,0-1.3-0.7-1.3-1.5c0-1,0.6-1.5,1.2-1.5
	c0.4,0,0.8,0.1,1,0.4h0V26h0.6V29.9 M146.1,29.5c0.6,0,0.8-0.5,0.8-1c0-0.6-0.3-1-0.8-1c-0.6,0-0.8,0.5-0.8,1
	C145.3,29,145.5,29.5,146.1,29.5"/>
<path fill="#FFFFFF" d="M150.2,28.6c0,0.6,0.5,0.8,1,0.8c0.6,0,0.8-0.3,0.8-0.6c0-0.3-0.2-0.4-0.3-0.5c-0.3-0.1-0.6-0.2-1.2-0.3
	c-0.7-0.2-0.9-0.6-0.9-1c0-0.8,0.7-1.2,1.4-1.2c0.8,0,1.5,0.4,1.5,1.3H152c0-0.5-0.4-0.7-0.8-0.7c-0.3,0-0.7,0.1-0.7,0.5
	c0,0.3,0.2,0.4,0.5,0.5c0.1,0,0.9,0.2,1.1,0.3c0.5,0.2,0.8,0.6,0.8,1c0,0.9-0.8,1.2-1.6,1.2c-0.9,0-1.6-0.4-1.7-1.4H150.2"/>
<path fill="#FFFFFF" d="M153,27.1h0.5v-0.9h0.6v0.9h0.6v0.5h-0.6v1.5c0,0.3,0,0.4,0.3,0.4c0.1,0,0.2,0,0.3,0v0.5c-0.1,0-0.3,0-0.4,0
	c-0.7,0-0.8-0.3-0.8-0.7v-1.7H153V27.1"/>
<path fill="#FFFFFF" d="M157.5,29.3c0,0.2,0,0.2,0.1,0.2c0,0,0.1,0,0.2,0v0.4c-0.1,0-0.3,0.1-0.4,0.1c-0.3,0-0.4-0.1-0.5-0.3
	c-0.2,0.2-0.6,0.3-1,0.3c-0.5,0-1-0.3-1-0.8c0-0.7,0.6-0.8,1.1-0.9c0.5-0.1,0.9,0,0.9-0.4c0-0.3-0.3-0.4-0.6-0.4
	c-0.4,0-0.6,0.1-0.6,0.5h-0.6c0-0.7,0.7-1,1.3-1c0.6,0,1.1,0.2,1.1,0.8V29.3 M156.9,28.5c-0.2,0.1-0.5,0.1-0.8,0.2
	c-0.3,0-0.5,0.1-0.5,0.5c0,0.3,0.4,0.4,0.6,0.4c0.3,0,0.7-0.1,0.7-0.5V28.5z"/>
<path fill="#FFFFFF" d="M157.9,27.1h0.5v-0.9h0.6v0.9h0.6v0.5H159v1.5c0,0.3,0,0.4,0.3,0.4c0.1,0,0.2,0,0.3,0v0.5
	c-0.1,0-0.3,0-0.4,0c-0.7,0-0.8-0.3-0.8-0.7v-1.7h-0.5V27.1"/>
<path fill="#FFFFFF" d="M160.6,28.7c0,0.4,0.2,0.8,0.8,0.8c0.4,0,0.6-0.2,0.7-0.5h0.6c-0.1,0.6-0.7,1-1.3,1c-0.9,0-1.4-0.6-1.4-1.5
	c0-0.8,0.5-1.5,1.4-1.5c0.9,0,1.4,0.8,1.3,1.7H160.6 M162,28.3c0-0.4-0.3-0.8-0.7-0.8c-0.4,0-0.7,0.3-0.8,0.8H162z"/>
<path fill="#FFFFFF" d="M163.6,29c0,0.4,0.3,0.5,0.6,0.5c0.2,0,0.7-0.1,0.6-0.4c0-0.3-0.5-0.4-0.9-0.5c-0.5-0.1-0.9-0.3-0.9-0.8
	c0-0.6,0.7-0.8,1.2-0.8c0.6,0,1.1,0.2,1.2,0.9h-0.7c0-0.3-0.3-0.4-0.6-0.4c-0.2,0-0.5,0-0.5,0.3c0,0.3,0.5,0.4,0.9,0.5
	c0.5,0.1,0.9,0.3,0.9,0.8c0,0.7-0.7,0.9-1.3,0.9c-0.7,0-1.3-0.3-1.3-1H163.6"/>
<path fill="#FFFFFF" d="M171.1,29.9h-0.4l-0.1-0.5c-0.4,0.4-0.7,0.6-1.2,0.6c-1.2,0-1.9-0.9-1.9-2.1c0-1.1,0.7-2.1,1.9-2.1
	c0.9,0,1.6,0.5,1.7,1.3h-0.7c-0.1-0.5-0.5-0.8-1-0.8c-0.8,0-1.2,0.7-1.2,1.5c0,0.8,0.4,1.5,1.2,1.5c0.7,0,1.1-0.4,1.1-1.1h-1.1v-0.5
	h1.7V29.9"/>
<path fill="#FFFFFF" d="M171.6,28.5c0-0.9,0.5-1.5,1.4-1.5c0.9,0,1.4,0.6,1.4,1.5c0,0.9-0.5,1.5-1.4,1.5
	C172.1,30,171.6,29.4,171.6,28.5 M173.9,28.5c0-0.5-0.2-1-0.8-1c-0.6,0-0.8,0.5-0.8,1c0,0.5,0.2,1,0.8,1
	C173.6,29.5,173.9,29,173.9,28.5"/>
<polyline fill="#FFFFFF" points="174.7,27.1 175.4,27.1 176.2,29.3 176.2,29.3 176.9,27.1 177.5,27.1 176.5,29.9 175.8,29.9 
	174.7,27.1 "/>
<path fill="#FFFFFF" d="M178.4,28.7c0,0.4,0.2,0.8,0.8,0.8c0.4,0,0.6-0.2,0.7-0.5h0.6c-0.1,0.6-0.7,1-1.3,1c-0.9,0-1.4-0.6-1.4-1.5
	c0-0.8,0.5-1.5,1.4-1.5c0.9,0,1.5,0.8,1.3,1.7H178.4 M179.9,28.3c0-0.4-0.3-0.8-0.7-0.8c-0.4,0-0.7,0.3-0.8,0.8H179.9z"/>
<path fill="#FFFFFF" d="M181,27.1h0.6v0.6h0c0.1-0.3,0.4-0.6,0.8-0.6c0.1,0,0.2,0,0.2,0v0.6c-0.1,0-0.2,0-0.3,0
	c-0.4,0-0.8,0.3-0.8,1v1.4H181V27.1"/>
<path fill="#FFFFFF" d="M183,27.1h0.6v0.4l0,0c0.2-0.3,0.5-0.5,0.9-0.5c0.6,0,1,0.3,1,1v2h-0.6v-1.8c0-0.4-0.2-0.6-0.6-0.6
	c-0.4,0-0.7,0.3-0.7,0.8v1.7H183V27.1"/>
<path fill="#FFFFFF" d="M186.2,27.1h0.6v0.4h0c0.2-0.3,0.4-0.5,0.9-0.5c0.4,0,0.7,0.1,0.8,0.5c0.2-0.3,0.5-0.5,0.9-0.5
	c0.6,0,1,0.3,1,1v2h-0.6v-1.7c0-0.5,0-0.8-0.5-0.8c-0.4,0-0.6,0.3-0.6,0.8v1.7H188v-1.8c0-0.4-0.1-0.6-0.5-0.6
	c-0.3,0-0.6,0.3-0.6,0.7v1.7h-0.6V27.1"/>
<path fill="#FFFFFF" d="M191.5,28.7c0,0.4,0.2,0.8,0.8,0.8c0.4,0,0.6-0.2,0.7-0.5h0.6c-0.1,0.6-0.7,1-1.3,1c-0.9,0-1.4-0.6-1.4-1.5
	c0-0.8,0.5-1.5,1.4-1.5c0.9,0,1.5,0.8,1.4,1.7H191.5 M193,28.3c0-0.4-0.3-0.8-0.7-0.8c-0.4,0-0.7,0.3-0.8,0.8H193z"/>
<path fill="#FFFFFF" d="M194.1,27.1h0.6v0.4l0,0c0.2-0.3,0.5-0.5,0.9-0.5c0.6,0,1,0.3,1,1v2H196v-1.8c0-0.4-0.2-0.6-0.6-0.6
	c-0.4,0-0.7,0.3-0.7,0.8v1.7h-0.6V27.1"/>
<path fill="#FFFFFF" d="M197,27.1h0.5v-0.9h0.6v0.9h0.6v0.5h-0.6v1.5c0,0.3,0,0.4,0.3,0.4c0.1,0,0.2,0,0.3,0v0.5c-0.1,0-0.3,0-0.4,0
	c-0.7,0-0.8-0.3-0.8-0.7v-1.7H197V27.1"/>
<polyline fill="#FFFFFF" points="25.4,84.5 26.1,84.5 27.9,87.4 27.9,87.4 27.9,84.5 28.6,84.5 28.6,88.5 27.8,88.5 26.1,85.6 
	26,85.6 26,88.5 25.4,88.5 25.4,84.5 "/>
<path fill="#FFFFFF" d="M31.7,87.8c0,0.2,0,0.2,0.1,0.2c0,0,0.1,0,0.2,0v0.4c-0.1,0-0.3,0.1-0.4,0.1c-0.3,0-0.4-0.1-0.5-0.3
	c-0.2,0.2-0.7,0.3-1,0.3c-0.5,0-1-0.3-1-0.8c0-0.7,0.6-0.8,1.1-0.9c0.5-0.1,0.9,0,0.9-0.4c0-0.3-0.3-0.4-0.6-0.4
	c-0.4,0-0.6,0.1-0.6,0.5h-0.6c0-0.7,0.7-1,1.3-1c0.6,0,1.1,0.2,1.1,0.8V87.8 M31.1,87c-0.2,0.1-0.5,0.1-0.8,0.2
	c-0.3,0-0.5,0.1-0.5,0.5c0,0.3,0.4,0.4,0.6,0.4c0.3,0,0.7-0.1,0.7-0.5V87z"/>
<path fill="#FFFFFF" d="M32.1,85.6h0.5v-0.9h0.6v0.9h0.6v0.5h-0.6v1.5c0,0.3,0,0.4,0.3,0.4c0.1,0,0.2,0,0.3,0v0.5
	c-0.1,0-0.3,0-0.4,0c-0.7,0-0.8-0.3-0.8-0.7v-1.7h-0.5V85.6"/>
<path fill="#FFFFFF" d="M34.2,84.5h0.6v0.6h-0.6V84.5z M34.2,85.6h0.6v2.9h-0.6V85.6z"/>
<path fill="#FFFFFF" d="M35.4,87c0-0.9,0.5-1.5,1.4-1.5c0.9,0,1.4,0.6,1.4,1.5c0,0.9-0.5,1.5-1.4,1.5C36,88.6,35.4,87.9,35.4,87
	 M37.7,87c0-0.5-0.2-1-0.8-1c-0.6,0-0.8,0.5-0.8,1c0,0.5,0.2,1,0.8,1C37.4,88.1,37.7,87.6,37.7,87"/>
<path fill="#FFFFFF" d="M38.8,85.6h0.6V86l0,0c0.2-0.3,0.5-0.5,0.9-0.5c0.6,0,1,0.3,1,1v2h-0.6v-1.8c0-0.4-0.2-0.6-0.6-0.6
	c-0.4,0-0.7,0.3-0.7,0.8v1.7h-0.6V85.6"/>
<path fill="#FFFFFF" d="M44.4,87.8c0,0.2,0,0.2,0.2,0.2c0,0,0.1,0,0.2,0v0.4c-0.1,0-0.3,0.1-0.4,0.1c-0.3,0-0.4-0.1-0.5-0.3
	c-0.2,0.2-0.7,0.3-1,0.3c-0.5,0-1-0.3-1-0.8c0-0.7,0.6-0.8,1.1-0.9c0.5-0.1,0.9,0,0.9-0.4c0-0.3-0.3-0.4-0.6-0.4
	c-0.4,0-0.6,0.1-0.6,0.5H42c0-0.7,0.7-1,1.3-1c0.6,0,1.1,0.2,1.1,0.8V87.8 M43.8,87c-0.2,0.1-0.5,0.1-0.8,0.2
	c-0.3,0-0.5,0.1-0.5,0.5c0,0.3,0.4,0.4,0.6,0.4c0.3,0,0.7-0.1,0.7-0.5V87z"/>
<rect x="45.1" y="84.5" fill="#FFFFFF" width="0.6" height="4"/>
<path fill="#FFFFFF" d="M50.7,85.8c-0.1-0.5-0.4-0.8-1-0.8c-0.8,0-1.2,0.7-1.2,1.5c0,0.8,0.4,1.5,1.2,1.5c0.6,0,1-0.5,1-1h0.7
	c-0.1,0.9-0.7,1.6-1.7,1.6c-1.2,0-1.9-0.9-1.9-2.1c0-1.1,0.7-2.1,1.9-2.1c0.9,0,1.6,0.5,1.7,1.3H50.7"/>
<path fill="#FFFFFF" d="M52,85.6h0.6v0.6h0c0.1-0.3,0.4-0.6,0.8-0.6c0.1,0,0.2,0,0.2,0v0.6c-0.1,0-0.2,0-0.3,0c-0.4,0-0.8,0.3-0.8,1
	v1.4H52V85.6"/>
<path fill="#FFFFFF" d="M54.3,87.2c0,0.4,0.2,0.8,0.8,0.8c0.4,0,0.6-0.2,0.7-0.5h0.6c-0.1,0.6-0.7,1-1.3,1c-0.9,0-1.4-0.6-1.4-1.5
	c0-0.8,0.5-1.5,1.4-1.5c0.9,0,1.5,0.8,1.3,1.7H54.3 M55.8,86.8c0-0.4-0.3-0.8-0.7-0.8c-0.4,0-0.7,0.3-0.7,0.8H55.8z"/>
<path fill="#FFFFFF" d="M59.6,88.5H59v-0.4h0c-0.2,0.3-0.5,0.5-0.9,0.5c-0.9,0-1.3-0.7-1.3-1.5c0-1,0.6-1.5,1.2-1.5
	c0.4,0,0.8,0.1,1,0.4h0v-1.5h0.6V88.5 M58.2,88.1c0.6,0,0.8-0.5,0.8-1c0-0.6-0.3-1-0.8-1c-0.6,0-0.8,0.5-0.8,1
	C57.4,87.6,57.6,88.1,58.2,88.1"/>
<path fill="#FFFFFF" d="M60.3,84.5h0.6v0.6h-0.6V84.5z M60.3,85.6h0.6v2.9h-0.6V85.6z"/>
<path fill="#FFFFFF" d="M61.3,85.6h0.5v-0.9h0.6v0.9H63v0.5h-0.6v1.5c0,0.3,0,0.4,0.3,0.4c0.1,0,0.2,0,0.3,0v0.5c-0.1,0-0.3,0-0.4,0
	c-0.7,0-0.8-0.3-0.8-0.7v-1.7h-0.5V85.6"/>
<path fill="#FFFFFF" d="M65,84.5h0.7v2.3c0,0.5,0,1.1,0.9,1.1c0.9,0,0.9-0.6,0.9-1.1v-2.3h0.7v2.5c0,1-0.6,1.5-1.6,1.5
	c-1,0-1.6-0.5-1.6-1.5V84.5"/>
<path fill="#FFFFFF" d="M69,85.6h0.6V86l0,0c0.2-0.3,0.5-0.5,0.9-0.5c0.6,0,1,0.3,1,1v2h-0.6v-1.8c0-0.4-0.2-0.6-0.6-0.6
	c-0.4,0-0.7,0.3-0.7,0.8v1.7H69V85.6"/>
<path fill="#FFFFFF" d="M72.2,84.5h0.6v0.6h-0.6V84.5z M72.2,85.6h0.6v2.9h-0.6V85.6z"/>
<path fill="#FFFFFF" d="M73.4,87c0-0.9,0.5-1.5,1.4-1.5c0.9,0,1.4,0.6,1.4,1.5c0,0.9-0.5,1.5-1.4,1.5C73.9,88.6,73.4,87.9,73.4,87
	 M75.6,87c0-0.5-0.2-1-0.8-1c-0.6,0-0.8,0.5-0.8,1c0,0.5,0.2,1,0.8,1C75.4,88.1,75.6,87.6,75.6,87"/>
<path fill="#FFFFFF" d="M76.8,85.6h0.6V86l0,0c0.2-0.3,0.5-0.5,0.9-0.5c0.6,0,1,0.3,1,1v2h-0.6v-1.8c0-0.4-0.2-0.6-0.6-0.6
	c-0.4,0-0.7,0.3-0.7,0.8v1.7h-0.6V85.6"/>
<path fill="#FFFFFF" d="M82.6,84.5h0.7l1.5,4h-0.7l-0.4-1h-1.6l-0.4,1h-0.7L82.6,84.5 M82.4,86.9h1.2L83,85.2h0L82.4,86.9z"/>
<path fill="#FFFFFF" d="M87.9,88.5h-0.6v-0.4h0c-0.2,0.3-0.5,0.5-0.9,0.5c-0.9,0-1.3-0.7-1.3-1.5c0-1,0.6-1.5,1.2-1.5
	c0.4,0,0.8,0.1,0.9,0.4h0v-1.5h0.6V88.5 M86.5,88.1c0.6,0,0.8-0.5,0.8-1c0-0.6-0.3-1-0.8-1c-0.6,0-0.8,0.5-0.8,1
	C85.7,87.6,85.9,88.1,86.5,88.1"/>
<path fill="#FFFFFF" d="M88.6,85.6h0.6V86h0c0.2-0.3,0.4-0.5,0.9-0.5c0.4,0,0.7,0.1,0.8,0.5c0.2-0.3,0.5-0.5,0.9-0.5
	c0.6,0,1,0.3,1,1v2h-0.6v-1.7c0-0.5,0-0.8-0.5-0.8c-0.4,0-0.6,0.3-0.6,0.8v1.7h-0.6v-1.8c0-0.4-0.1-0.6-0.5-0.6
	c-0.3,0-0.6,0.3-0.6,0.7v1.7h-0.6V85.6"/>
<path fill="#FFFFFF" d="M93.4,84.5H94v0.6h-0.6V84.5z M93.4,85.6H94v2.9h-0.6V85.6z"/>
<path fill="#FFFFFF" d="M94.7,85.6h0.6V86l0,0c0.2-0.3,0.5-0.5,0.9-0.5c0.6,0,1,0.3,1,1v2h-0.6v-1.8c0-0.4-0.2-0.6-0.6-0.6
	c-0.4,0-0.7,0.3-0.7,0.8v1.7h-0.6V85.6"/>
<path fill="#FFFFFF" d="M97.9,84.5h0.6v0.6h-0.6V84.5z M97.9,85.6h0.6v2.9h-0.6V85.6z"/>
<path fill="#FFFFFF" d="M99.7,87.6c0,0.4,0.3,0.5,0.6,0.5c0.2,0,0.7-0.1,0.6-0.4c0-0.3-0.5-0.4-0.9-0.5c-0.5-0.1-0.9-0.3-0.9-0.8
	c0-0.6,0.7-0.8,1.2-0.8c0.6,0,1.1,0.2,1.2,0.9h-0.7c-0.1-0.3-0.3-0.4-0.6-0.4c-0.2,0-0.5,0-0.5,0.3c0,0.3,0.5,0.4,0.9,0.5
	c0.5,0.1,0.9,0.3,0.9,0.8c0,0.7-0.7,0.9-1.3,0.9c-0.7,0-1.3-0.3-1.3-1H99.7"/>
<path fill="#FFFFFF" d="M101.8,85.6h0.5v-0.9h0.6v0.9h0.6v0.5h-0.6v1.5c0,0.3,0,0.4,0.3,0.4c0.1,0,0.2,0,0.3,0v0.5
	c-0.1,0-0.3,0-0.4,0c-0.7,0-0.8-0.3-0.8-0.7v-1.7h-0.5V85.6"/>
<path fill="#FFFFFF" d="M103.9,85.6h0.6v0.6h0c0.1-0.3,0.4-0.6,0.8-0.6c0.1,0,0.2,0,0.2,0v0.6c-0.1,0-0.2,0-0.3,0
	c-0.4,0-0.8,0.3-0.8,1v1.4h-0.6V85.6"/>
<path fill="#FFFFFF" d="M108.3,87.8c0,0.2,0,0.2,0.1,0.2c0,0,0.1,0,0.2,0v0.4c-0.1,0-0.3,0.1-0.4,0.1c-0.3,0-0.4-0.1-0.5-0.3
	c-0.2,0.2-0.7,0.3-1,0.3c-0.5,0-1-0.3-1-0.8c0-0.7,0.6-0.8,1.1-0.9c0.5-0.1,0.9,0,0.9-0.4c0-0.3-0.3-0.4-0.6-0.4
	c-0.4,0-0.6,0.1-0.6,0.5h-0.6c0-0.7,0.7-1,1.3-1c0.6,0,1.1,0.2,1.1,0.8V87.8 M107.6,87c-0.2,0.1-0.5,0.1-0.8,0.2
	c-0.3,0-0.5,0.1-0.5,0.5c0,0.3,0.4,0.4,0.6,0.4c0.3,0,0.7-0.1,0.7-0.5V87z"/>
<path fill="#FFFFFF" d="M108.7,85.6h0.5v-0.9h0.6v0.9h0.6v0.5h-0.6v1.5c0,0.3,0,0.4,0.3,0.4c0.1,0,0.2,0,0.3,0v0.5
	c-0.1,0-0.3,0-0.4,0c-0.7,0-0.8-0.3-0.8-0.7v-1.7h-0.5V85.6"/>
<path fill="#FFFFFF" d="M110.8,84.5h0.6v0.6h-0.6V84.5z M110.8,85.6h0.6v2.9h-0.6V85.6z"/>
<path fill="#FFFFFF" d="M112,87c0-0.9,0.5-1.5,1.4-1.5c0.9,0,1.4,0.6,1.4,1.5c0,0.9-0.5,1.5-1.4,1.5C112.5,88.6,112,87.9,112,87
	 M114.3,87c0-0.5-0.2-1-0.8-1c-0.6,0-0.8,0.5-0.8,1c0,0.5,0.3,1,0.8,1C114,88.1,114.3,87.6,114.3,87"/>
<path fill="#FFFFFF" d="M115.4,85.6h0.6V86l0,0c0.2-0.3,0.5-0.5,0.9-0.5c0.6,0,1,0.3,1,1v2h-0.6v-1.8c0-0.4-0.2-0.6-0.6-0.6
	c-0.4,0-0.7,0.3-0.7,0.8v1.7h-0.6V85.6"/>
<path fill="#FFFFFF" d="M118.6,87.7h0.8v0.7c0,0.5-0.3,0.8-0.7,0.9V89c0.2-0.1,0.4-0.3,0.4-0.5h-0.4V87.7"/>
<path fill="#FFFFFF" d="M124.1,87.8c0,0.2,0,0.2,0.1,0.2c0,0,0.1,0,0.2,0v0.4c-0.1,0-0.3,0.1-0.4,0.1c-0.3,0-0.4-0.1-0.5-0.3
	c-0.2,0.2-0.7,0.3-1,0.3c-0.5,0-1-0.3-1-0.8c0-0.7,0.6-0.8,1.1-0.9c0.5-0.1,0.9,0,0.9-0.4c0-0.3-0.3-0.4-0.6-0.4
	c-0.4,0-0.6,0.1-0.6,0.5h-0.6c0-0.7,0.7-1,1.3-1c0.6,0,1.1,0.2,1.1,0.8V87.8 M123.4,87c-0.2,0.1-0.5,0.1-0.8,0.2
	c-0.3,0-0.5,0.1-0.5,0.5c0,0.3,0.4,0.4,0.6,0.4c0.3,0,0.7-0.1,0.7-0.5V87z"/>
<path fill="#FFFFFF" d="M126.3,84.5h0.7v2.3c0,0.5,0,1.1,0.9,1.1c0.9,0,0.9-0.6,0.9-1.1v-2.3h0.7v2.5c0,1-0.7,1.5-1.6,1.5
	c-1,0-1.6-0.5-1.6-1.5V84.5"/>
<rect x="130.3" y="87.7" fill="#FFFFFF" width="0.8" height="0.7"/>
<path fill="#FFFFFF" d="M132.4,87.2c0,0.6,0.4,0.8,1,0.8c0.6,0,0.8-0.3,0.8-0.6c0-0.3-0.2-0.4-0.3-0.5c-0.3-0.1-0.6-0.2-1.2-0.3
	c-0.7-0.2-0.9-0.6-0.9-1c0-0.8,0.7-1.2,1.4-1.2c0.8,0,1.5,0.4,1.5,1.3h-0.7c0-0.5-0.4-0.7-0.9-0.7c-0.3,0-0.7,0.1-0.7,0.5
	c0,0.3,0.2,0.4,0.5,0.5c0.1,0,0.9,0.2,1.1,0.3c0.5,0.2,0.8,0.6,0.8,1c0,0.9-0.8,1.2-1.6,1.2c-0.9,0-1.6-0.4-1.7-1.4H132.4"/>
<rect x="135.5" y="87.7" fill="#FFFFFF" width="0.8" height="0.7"/>
<path fill="#FFFFFF" d="M142,88.5h-0.4l-0.1-0.5c-0.4,0.4-0.7,0.6-1.2,0.6c-1.2,0-1.9-0.9-1.9-2.1c0-1.1,0.7-2.1,1.9-2.1
	c0.9,0,1.6,0.5,1.7,1.3h-0.7c-0.1-0.5-0.5-0.8-1-0.8c-0.8,0-1.2,0.7-1.2,1.5c0,0.8,0.4,1.5,1.2,1.5c0.7,0,1.1-0.4,1.1-1.1h-1.1v-0.5
	h1.7V88.5"/>
<path fill="#FFFFFF" d="M142.6,87c0-0.9,0.5-1.5,1.4-1.5s1.4,0.6,1.4,1.5c0,0.9-0.5,1.5-1.4,1.5S142.6,87.9,142.6,87 M144.8,87
	c0-0.5-0.3-1-0.8-1c-0.6,0-0.8,0.5-0.8,1c0,0.5,0.3,1,0.8,1C144.6,88.1,144.8,87.6,144.8,87"/>
<polyline fill="#FFFFFF" points="145.7,85.6 146.4,85.6 147.1,87.8 147.1,87.8 147.8,85.6 148.5,85.6 147.4,88.5 146.7,88.5 
	145.7,85.6 "/>
<path fill="#FFFFFF" d="M149.3,87.2c0,0.4,0.2,0.8,0.8,0.8c0.4,0,0.6-0.2,0.7-0.5h0.6c-0.1,0.6-0.7,1-1.3,1c-0.9,0-1.4-0.6-1.4-1.5
	c0-0.8,0.5-1.5,1.4-1.5c0.9,0,1.5,0.8,1.4,1.7H149.3 M150.8,86.8c0-0.4-0.3-0.8-0.7-0.8c-0.4,0-0.7,0.3-0.8,0.8H150.8z"/>
<path fill="#FFFFFF" d="M151.9,85.6h0.6v0.6h0c0.1-0.3,0.4-0.6,0.8-0.6c0.1,0,0.2,0,0.2,0v0.6c-0.1,0-0.2,0-0.3,0
	c-0.4,0-0.8,0.3-0.8,1v1.4h-0.6V85.6"/>
<path fill="#FFFFFF" d="M154,85.6h0.6V86l0,0c0.2-0.3,0.5-0.5,0.9-0.5c0.6,0,1,0.3,1,1v2h-0.6v-1.8c0-0.4-0.2-0.6-0.6-0.6
	c-0.4,0-0.7,0.3-0.7,0.8v1.7H154V85.6"/>
<path fill="#FFFFFF" d="M157.1,85.6h0.6V86h0c0.2-0.3,0.4-0.5,0.9-0.5c0.3,0,0.7,0.1,0.8,0.5c0.2-0.3,0.5-0.5,0.9-0.5
	c0.6,0,1,0.3,1,1v2h-0.6v-1.7c0-0.5,0-0.8-0.5-0.8c-0.4,0-0.6,0.3-0.6,0.8v1.7h-0.6v-1.8c0-0.4-0.1-0.6-0.5-0.6
	c-0.3,0-0.6,0.3-0.6,0.7v1.7h-0.6V85.6"/>
<path fill="#FFFFFF" d="M162.4,87.2c0,0.4,0.2,0.8,0.8,0.8c0.4,0,0.6-0.2,0.7-0.5h0.6c-0.1,0.6-0.7,1-1.3,1c-0.9,0-1.4-0.6-1.4-1.5
	c0-0.8,0.5-1.5,1.4-1.5c0.9,0,1.5,0.8,1.3,1.7H162.4 M163.9,86.8c0-0.4-0.3-0.8-0.7-0.8c-0.4,0-0.7,0.3-0.8,0.8H163.9z"/>
<path fill="#FFFFFF" d="M165,85.6h0.6V86l0,0c0.2-0.3,0.5-0.5,0.9-0.5c0.6,0,1,0.3,1,1v2h-0.6v-1.8c0-0.4-0.2-0.6-0.6-0.6
	c-0.4,0-0.7,0.3-0.7,0.8v1.7H165V85.6"/>
<path fill="#FFFFFF" d="M167.9,85.6h0.5v-0.9h0.6v0.9h0.6v0.5H169v1.5c0,0.3,0,0.4,0.3,0.4c0.1,0,0.2,0,0.3,0v0.5
	c-0.1,0-0.3,0-0.4,0c-0.7,0-0.8-0.3-0.8-0.7v-1.7h-0.5V85.6"/>
<path fill="#FFFFFF" d="M172.7,84.5h0.7l1.5,4h-0.7l-0.4-1h-1.6l-0.4,1h-0.7L172.7,84.5 M172.5,86.9h1.2l-0.6-1.7h0L172.5,86.9z"/>
<path fill="#FFFFFF" d="M177.9,88.3c0,0.9-0.5,1.3-1.4,1.3c-0.6,0-1.2-0.2-1.3-0.9h0.6c0.1,0.4,0.4,0.4,0.7,0.4
	c0.5,0,0.7-0.3,0.7-0.7V88h0c-0.2,0.3-0.5,0.5-0.9,0.5c-0.9,0-1.3-0.7-1.3-1.5c0-0.8,0.5-1.4,1.3-1.4c0.4,0,0.7,0.2,0.9,0.5h0v-0.4
	h0.6V88.3 M177.3,87c0-0.5-0.2-0.9-0.8-0.9c-0.6,0-0.8,0.5-0.8,1c0,0.5,0.2,0.9,0.8,0.9C177.1,88,177.3,87.5,177.3,87"/>
<path fill="#FFFFFF" d="M179.1,87.2c0,0.4,0.2,0.8,0.8,0.8c0.4,0,0.6-0.2,0.7-0.5h0.6c-0.1,0.6-0.7,1-1.3,1c-0.9,0-1.4-0.6-1.4-1.5
	c0-0.8,0.5-1.5,1.4-1.5c0.9,0,1.5,0.8,1.4,1.7H179.1 M180.5,86.8c0-0.4-0.3-0.8-0.7-0.8c-0.4,0-0.7,0.3-0.8,0.8H180.5z"/>
<path fill="#FFFFFF" d="M181.6,85.6h0.6V86l0,0c0.2-0.3,0.5-0.5,0.9-0.5c0.6,0,1,0.3,1,1v2h-0.6v-1.8c0-0.4-0.2-0.6-0.6-0.6
	c-0.4,0-0.7,0.3-0.7,0.8v1.7h-0.6V85.6"/>
<path fill="#FFFFFF" d="M186.7,86.6c-0.1-0.3-0.3-0.5-0.7-0.5c-0.3,0-0.8,0.2-0.8,1c0,0.5,0.2,1,0.8,1c0.4,0,0.6-0.2,0.7-0.7h0.6
	c-0.1,0.7-0.6,1.2-1.3,1.2c-0.9,0-1.4-0.6-1.4-1.5c0-0.9,0.5-1.5,1.4-1.5c0.7,0,1.2,0.3,1.3,1H186.7"/>
<path fill="#FFFFFF" d="M187.6,85.6h0.7l0.7,2.1h0l0.7-2.1h0.7l-1.1,3c-0.2,0.5-0.4,1-1,1c-0.2,0-0.3,0-0.4,0v-0.5
	c0.1,0,0.2,0,0.3,0c0.3,0,0.4-0.2,0.4-0.4l0.1-0.2L187.6,85.6"/>
</svg>
